# xmcd CD database file
#
# Track frame offsets:
#	150
#	13911
#	26128
#	40012
#	52557
#	63618
#	91441
#	105135
#	117319
#	129531
#	143113
#	155290
#	167400
#	180379
#	191997
#	203464
#	217879
#	228712
#	240450
#	252642
#
# Disc length: 3513 seconds
#
# Revision: 0
# Processed by: cddbd v1.4PL0 Copyright (c) Steve Scherf et al.
# Submitted via: Feurio! 1.66 - http://www.feurio.com
#
DISCID=090db714
DTITLE=Earl Bostic - Blows A Fuse
DYEAR=1993
DGENRE=blues
TTITLE0=Cheroke
TTITLE1=Two O'clock Jump
TTITLE2=Cuttin Out
TTITLE3=Earl Blows A Fuse
TTITLE4=Disc Jockey Nightmare
TTITLE5=That A Groovy Thing Pts 1&2
TTITLE6=Don't You Do It
TTITLE7=Moonglow
TTITLE8=Seven Steps
TTITLE9=Steam Whistle Jump
TTITLE10=Flamingo
TTITLE11=Filibuster
TTITLE12=Who Snuck The Wine In The Gravy
TTITLE13=Mambostic
TTITLE14=8:45 Stomp
TTITLE15=Sleep
TTITLE16=Harlem Nocturne
TTITLE17=Night Train
TTITLE18=Tuxedo Junction
TTITLE19=Special Delivery Stomp
EXTD=
EXTT0=
EXTT1=
EXTT2=
EXTT3=
EXTT4=
EXTT5=
EXTT6=
EXTT7=
EXTT8=
EXTT9=
EXTT10=
EXTT11=
EXTT12=
EXTT13=
EXTT14=
EXTT15=
EXTT16=
EXTT17=
EXTT18=
EXTT19=
PLAYORDER=
